# xmcd CD database file generated by Grip 3.3.1
# 
# Track frame offsets:
#       150
#       14258
#       27221
#       43497
#       61968
#       79302
#       98640
#       122319
#       150069
#       168826
#       189043
#       209848
#       218703
# 
# Disc length: 3361 seconds
# 
# Revision: 1
# Processed by: cddbd v1.5.2PL0 Copyright (c) Steve Scherf et al.
# Submitted via: Grip 3.3.1
# 
DISCID=9d0d1f0d
DTITLE=Various Artist - Toast and Jam Nine
DYEAR=2003
DGENRE=Electronic
TTITLE0=Decapod Claw - Bosconian
TTITLE1=Solenoid - Genclone 4
TTITLE2=Phoplex - Delicate Fish
TTITLE3=ML - Monkey Feet
TTITLE4=Mr. Purple - Scissors
TTITLE5=Glomm - A Pleasant Surprise
TTITLE6=Roshi - Mako
TTITLE7=DJ Copy - Arthur, The Greatest Achiever In The World
TTITLE8=ML - She's A Doctor, Too
TTITLE9=Ainu - Herbert West
TTITLE10=Decapod Claw - Squish Pirate 03
TTITLE11=Solenoid - Bumpity Breaks
TTITLE12=N-Grava - Loving Sight
EXTD=
EXTT0=
EXTT1=
EXTT2=
EXTT3=
EXTT4=
EXTT5=
EXTT6=
EXTT7=
EXTT8=
EXTT9=
EXTT10=
EXTT11=
EXTT12=
PLAYORDER=
